<?xml version="1.0" encoding="UTF-8"?>
<svg width="21px" height="22px" viewBox="0 0 21 22" version="1.1" xmlns="http://www.w3.org/2000/svg" xmlns:xlink="http://www.w3.org/1999/xlink">
    <!-- Generator: Sketch 64 (93537) - https://sketch.com -->
    <title>np_add_860385_000000</title>
    <desc>Created with Sketch.</desc>
    <g id="Symbols" stroke="none" stroke-width="1" fill="none" fill-rule="evenodd">
        <g id="rejeuxxx" transform="translate(-310.000000, -29.000000)" fill="#FFFFFF" fill-rule="nonzero">
            <g id="Group-10">
                <g id="Group-9" transform="translate(20.000000, 20.000000)">
                    <g id="Group-3" transform="translate(233.000000, 0.000000)">
                        <g id="like">
                            <g id="np_add_860385_000000" transform="translate(57.310599, 9.406208)">
                                <path d="M9.21063205,9.40620783 L6.13571371,9.40620783 C5.58323953,9.40620783 5.11709968,9.8740726 5.11709968,10.451342 C5.11709968,11.0326875 5.57284175,11.4964762 6.13571371,11.4964762 L9.21063205,11.4964762 L9.21063205,14.6366865 C9.21063205,15.2008917 9.66876889,15.6769294 10.2340356,15.6769294 C10.8032936,15.6769294 11.2574392,15.2115103 11.2574392,14.6366865 L11.2574392,11.4964762 L14.3323575,11.4964762 C14.8848317,11.4964762 15.3509715,11.0286115 15.3509715,10.451342 C15.3509715,9.86999658 14.8952295,9.40620783 14.3323575,9.40620783 L11.2574392,9.40620783 L11.2574392,6.2659976 C11.2574392,5.70179235 10.7993023,5.22575463 10.2340356,5.22575463 C9.66477761,5.22575463 9.21063205,5.69117379 9.21063205,6.2659976 L9.21063205,9.40620783 Z M10.2340356,20.9026841 C4.5821871,20.9026841 0,16.2232002 0,10.451342 C0,4.67948388 4.5821871,0 10.2340356,0 C15.8858841,0 20.4680712,4.67948388 20.4680712,10.451342 C20.4680712,16.2232002 15.8858841,20.9026841 10.2340356,20.9026841 Z" id="Shape"></path>
                            </g>
                        </g>
                    </g>
                </g>
            </g>
        </g>
    </g>
</svg>