<?xml version="1.0" encoding="UTF-8"?>
<svg width="57px" height="57px" viewBox="0 0 57 57" version="1.1" xmlns="http://www.w3.org/2000/svg" xmlns:xlink="http://www.w3.org/1999/xlink">
    <!-- Generator: Sketch 64 (93537) - https://sketch.com -->
    <title>np_add_860385_000000</title>
    <desc>Created with Sketch.</desc>
    <g id="FINAL-MAQUETTE-V2" stroke="none" stroke-width="1" fill="none" fill-rule="evenodd">
        <g id="DESKTOP-RECHERCHE" transform="translate(-691.000000, -379.000000)" fill="#FFFFFF" fill-rule="nonzero">
            <g id="Group-12" transform="translate(609.000000, 321.000000)">
                <g id="np_add_860385_000000" transform="translate(82.000000, 58.000000)">
                    <path d="M26.1999552,26.1999552 L17.7869406,26.1999552 C16.2753644,26.1999552 15,27.4534233 15,29 C15,30.5574969 16.246916,31.8000448 17.7869406,31.8000448 L26.1999552,31.8000448 L26.1999552,40.2130594 C26.1999552,41.7246356 27.4534233,43 29,43 C30.5574969,43 31.8000448,41.753084 31.8000448,40.2130594 L31.8000448,31.8000448 L40.2130594,31.8000448 C41.7246356,31.8000448 43,30.5465767 43,29 C43,27.4425031 41.753084,26.1999552 40.2130594,26.1999552 L31.8000448,26.1999552 L31.8000448,17.7869406 C31.8000448,16.2753644 30.5465767,15 29,15 C27.4425031,15 26.1999552,16.246916 26.1999552,17.7869406 L26.1999552,26.1999552 Z M28.5,57 C12.76059,57 0,44.23941 0,28.5 C0,12.76059 12.76059,0 28.5,0 C44.23941,0 57,12.76059 57,28.5 C57,44.23941 44.23941,57 28.5,57 Z" id="Shape"></path>
                </g>
            </g>
        </g>
    </g>
</svg>