<?xml version="1.0" encoding="UTF-8"?>
<svg width="27px" height="29px" viewBox="0 0 27 29" version="1.1" xmlns="http://www.w3.org/2000/svg" xmlns:xlink="http://www.w3.org/1999/xlink">
    <!-- Generator: Sketch 64 (93537) - https://sketch.com -->
    <title>np_delete_3163178_000000</title>
    <desc>Created with Sketch.</desc>
    <g id="FINAL-MAQUETTE-V2" stroke="none" stroke-width="1" fill="none" fill-rule="evenodd">
        <g id="DESKTOP-BIBLIOTHEQUE" transform="translate(-570.000000, -372.000000)" fill="#FFFFFF" fill-rule="nonzero">
            <g id="HEADER">
                <g id="Group-6" transform="translate(553.000000, 267.000000)">
                    <g id="Group-3" transform="translate(0.000000, 89.000000)">
                        <g id="np_delete_3163178_000000" transform="translate(17.000000, 16.000000)">
                            <path d="M27,3.10714286 L20.7691796,3.10714286 L20.7691796,0 L6.23075389,0 L6.23075389,3.10714286 L0,3.10714286 L0,9.32142857 L3.16728328,9.32142857 L4.20574226,29 L22.8461641,29 L23.8846231,9.32142857 L27,9.32142857 L27,3.10714286 Z M8.30767186,2.07142857 L18.6922617,2.07142857 L18.6922617,3.10714286 L8.30767186,3.10714286 L8.30767186,2.07142857 Z M20.8210195,26.9285714 L6.23075389,26.9285714 L5.29614081,9.32142857 L21.8078048,9.32142857 L20.8210195,26.9285714 Z M24.9230156,7.25 L2.07691796,7.25 L2.07691796,5.17857143 L24.9230156,5.17857143 L24.9230156,7.25 Z M10.3845898,24.8571429 L8.30767186,24.8571429 L8.30767186,11.3928571 L10.3845898,11.3928571 L10.3845898,24.8571429 Z M18.6922617,24.8571429 L16.6153437,24.8571429 L16.6153437,11.3928571 L18.6922617,11.3928571 L18.6922617,24.8571429 Z M14.5384258,24.8571429 L12.4615078,24.8571429 L12.4615078,11.3928571 L14.5384258,11.3928571 L14.5384258,24.8571429 Z" id="Shape"></path>
                        </g>
                    </g>
                </g>
            </g>
        </g>
    </g>
</svg>