<?xml version="1.0" encoding="UTF-8"?>
<svg width="192px" height="133px" viewBox="0 0 192 133" version="1.1" xmlns="http://www.w3.org/2000/svg" xmlns:xlink="http://www.w3.org/1999/xlink">
    <!-- Generator: Sketch 64 (93537) - https://sketch.com -->
    <title>np_winner_1913905_FFFFFF</title>
    <desc>Created with Sketch.</desc>
    <g id="Profile-Users" stroke="none" stroke-width="1" fill="none" fill-rule="evenodd" opacity="0.120024182">
        <g id="SITE---" transform="translate(-305.000000, -1424.000000)" fill="#FFFFFF" fill-rule="nonzero">
            <g id="GK" transform="translate(-60.000000, 915.000000)">
                <g id="winner" transform="translate(302.000000, 409.000000)">
                    <g id="np_winner_1913905_FFFFFF">
                        <g transform="translate(63.000000, 100.000000)">
                            <path d="M114.053961,106 L79.945897,106 C78.9078255,106 78.0273273,106.774557 77.8975624,107.810396 L76.0160548,122.667013 C75.9419068,123.254918 76.1272768,123.852165 76.5165595,124.300099 C76.9058304,124.748034 77.4712057,125 78.0643894,125 L115.935611,125 C116.528795,125 117.09417,124.738693 117.483441,124.300099 C117.872712,123.852165 118.058094,123.254918 117.983946,122.667013 L116.102438,107.810396 C115.97268,106.774557 115.092175,106 114.054104,106 L114.053961,106 Z M80.4085803,120.856617 L81.7617747,110.152772 L112.237182,110.152772 L113.590376,120.856617 L80.4085803,120.856617 Z" id="Shape"></path>
                            <path d="M95.8581712,80 C96.3392996,80 96.8204491,79.9822821 97.2932741,79.937983 C98.3136118,79.8582481 99.0767787,78.9102931 98.9938299,77.8205726 C98.9191718,76.7308521 98.0149665,75.9335034 97.0112355,76.0043793 C96.6296415,76.0309584 96.2397653,76.0486762 95.8498679,76.0486762 C94.8295301,76.0486762 94,76.9346369 94,78.0243347 C94.008297,79.1229232 94.8378335,80 95.8581712,80 L95.8581712,80 Z" id="Path"></path>
                            <path d="M86.1926018,74.0980152 C82.1678592,70.9167887 79.7631225,65.7077454 79.7631225,60.1431823 C79.7631225,58.9610601 78.9193586,58 77.8815612,58 C76.8437423,58 76,58.9610601 76,60.1431823 C76,67.1108804 79.0121309,73.6367005 84.0494852,77.615571 C84.3785408,77.8750637 84.749803,78 85.1210435,78 C85.7201001,78 86.3023086,77.6828369 86.6651036,77.0773705 C87.2557361,76.1066904 87.0447897,74.7707967 86.1926018,74.0981383 L86.1926018,74.0980152 Z" id="Path"></path>
                            <path d="M105.860919,32 L108.139081,32 C109.165514,32 110,31.1031466 110,30 C110,28.8968534 109.165493,28 108.139081,28 L105.860919,28 C104.834486,28 104,28.8968763 104,30 C104,31.1121239 104.834486,32 105.860919,32 Z" id="Path"></path>
                            <path d="M176.402121,49.4989141 C174.827337,49.7971013 173.411892,50.4214337 172.146546,51.1855323 C172.521494,49.84369 172.868318,48.4925443 173.158918,47.1227917 C173.524484,47.1414272 174.002547,47.1693828 174.583723,47.1693828 C177.602028,47.1693828 183.095114,46.6289245 186.919469,43.0973387 C192.328086,38.1121262 192.009409,29.3714251 191.990692,28.9985719 C191.943822,27.9828748 191.165805,27.1535327 190.153456,27.0323972 C189.787891,26.985806 181.042148,26.0073728 175.633531,30.9928 C175.342955,31.2537257 175.080479,31.5425856 174.827385,31.822142 L174.827385,24.5444665 C177.470862,24.3487817 183.769997,23.4169373 187.575634,19.0000934 C192.374975,13.4278099 191.043878,4.78038178 190.987726,4.41683197 C190.828373,3.41043832 189.956611,2.67429767 188.93488,2.67429767 L188.916133,2.67429767 C188.325599,2.67429767 179.701879,2.76747997 174.968049,8.27472997 C174.911806,8.33995901 174.874311,8.40518567 174.827443,8.46109696 L174.827443,2.07798295 C174.827443,0.931823004 173.890084,0 172.737114,0 C171.584144,0 170.646785,0.931823004 170.646785,2.07798295 L170.646785,8.46109696 C170.599917,8.39586792 170.553049,8.33063888 170.506181,8.27472997 C165.697482,2.70244654 156.961242,2.65569079 156.539379,2.67429767 C155.517648,2.68361542 154.645896,3.41976561 154.486533,4.41683197 C154.43029,4.78023865 153.099212,13.4275714 157.898625,19.0000934 C161.704262,23.4170804 168.012756,24.3488557 170.646874,24.5444665 L170.646874,31.8686592 C166.325547,26.2775304 158.048604,25.4018143 157.692493,25.364362 C156.689503,25.2525418 155.742761,25.9141475 155.470926,26.8925593 C155.377188,27.2466626 153.17437,35.7169914 157.373793,41.7367941 C160.401457,46.0698117 165.744563,47.7470549 168.669042,48.3713396 C167.909762,51.5116084 166.953661,54.5867531 165.772639,57.550018 C164.169732,52.6671433 159.192263,49.7038784 158.958055,49.5733917 C158.07692,49.0608915 156.952075,49.2565738 156.295861,50.0393032 C156.108387,50.2629436 151.740327,55.555766 152.743149,61.2585362 C153.549294,65.8057713 157.458021,68.9462787 159.14547,70.1108785 C157.645676,72.3566097 156.01462,74.4997167 154.26166,76.5591166 C154.280407,76.1770554 154.28978,75.795018 154.26166,75.4036294 C153.924195,69.5143134 148.356311,65.2652653 148.112505,65.0882614 C147.297001,64.4732563 146.162773,64.5384758 145.422234,65.237355 C145.206638,65.4423599 140.154238,70.2879302 140.482273,76.1770077 C140.716615,80.3051109 143.519296,83.6223837 145.262896,85.2996269 C143.650606,86.6042077 141.991426,87.8528248 140.248065,89.0176632 C140.398044,88.4026581 140.510541,87.759695 140.538641,87.0980773 C140.8386,81.2087612 135.7393,76.3912492 135.52381,76.186335 C134.783296,75.4874558 133.639685,75.440867 132.824181,76.0558769 C132.589838,76.2329261 127.040495,80.5286845 126.750135,86.4180006 C126.581407,89.782029 128.165557,92.7918111 129.599744,94.7951519 C128.390526,95.3263067 127.190714,95.8574377 125.944086,96.3233492 C124.941095,96.6960832 124.434909,97.7583691 124.688002,98.7646673 C124.378661,97.9912413 123.647529,97.4414557 122.775753,97.4414557 L108.433883,97.4507735 L108.433883,88.9803492 C113.505106,86.865081 117.967053,83.5197071 121.388263,79.195993 C123.637954,76.3260011 125.334521,73.1764288 126.487563,69.8310072 C136.151756,65.4326271 142.357303,55.9094828 142.357303,45.2866242 L142.357303,41.1678244 C142.357303,35.250598 137.50181,30.433086 131.540069,30.433086 L128.268598,30.433086 L128.268598,30.2374012 C132.355477,28.7650961 135.17701,24.8979423 135.17701,20.4623484 C135.17701,17.6946943 134.089671,15.0949792 132.111911,13.1195488 C130.134054,11.1533741 127.499984,10.0725529 124.706768,10.0725529 L67.3306479,10.0725529 C61.556561,10.0725529 56.860166,14.731668 56.860166,20.462587 C56.860166,22.9320539 57.741301,25.3175513 59.3443048,27.1717985 C60.54414,28.5788603 62.0532928,29.62242 63.7688172,30.2376398 L63.7688172,30.4426423 L60.4973465,30.4426423 C54.5356053,30.4426423 49.6801122,35.2601543 49.6801122,41.1773807 L49.6801122,45.2961805 C49.6801122,55.9097357 55.8667025,65.423815 65.503059,69.8214795 C66.6560286,73.175966 68.3901024,76.3350803 70.6491522,79.2143756 C74.0612435,83.5287863 78.5229507,86.8739693 83.6035329,88.9894284 L83.6035329,97.4598527 L69.2242279,97.4598527 C68.3524756,97.4598527 67.62132,98.0096383 67.3119785,98.7830643 C67.5650718,97.7766706 67.0588853,96.7143848 66.055895,96.3417462 C64.8091943,95.8758347 63.609431,95.3446798 62.4002371,94.8135488 C63.8344241,92.8101127 65.4185426,89.8001875 65.2498457,86.4363975 C64.9592696,80.5470815 59.4100078,76.2515163 59.1758,76.0742738 C58.360296,75.4592687 57.2260678,75.5151609 56.4761708,76.2047295 C56.2605748,76.4097344 51.1707394,81.2180909 51.4613395,87.1164718 C51.4988344,87.7780657 51.6019458,88.4210527 51.7519156,89.0360578 C50.0084111,87.8712671 48.349183,86.62265 46.7370844,85.3180215 C48.4805889,83.6407305 51.28326,80.323267 51.5177078,76.1954022 C51.8551494,70.3060862 46.7932367,65.4606638 46.5777463,65.2557496 C45.837232,64.5568704 44.6936211,64.4916509 43.8874758,65.106656 C43.6531336,65.2837052 38.075714,69.5329465 37.7383203,75.422024 C37.7195717,75.8133887 37.7195717,76.1954499 37.7383203,76.5775112 C35.9854331,74.5274624 34.3449464,72.3749804 32.8545111,70.1292731 C34.5417674,68.9644824 38.4505425,65.8241659 39.2568318,61.2769307 C40.259822,55.5741606 35.8917739,50.2812189 35.7041197,50.0576978 C35.0479538,49.2749684 33.9231083,49.0885895 33.0419254,49.5917863 C32.8075831,49.7222444 27.8300812,52.6855379 26.2273413,57.5684126 C25.0462475,54.6051477 24.0901469,51.5302415 23.3309391,48.3897341 C26.2460587,47.7654018 31.5985236,46.0881108 34.6261878,41.7551887 C38.8349697,35.7263211 36.6321683,27.2652003 36.5290544,26.9109539 C36.2665785,25.9325183 35.3198365,25.2802517 34.3074875,25.3827565 C33.9512805,25.4200299 25.6741933,26.2959488 21.3531068,31.8870538 L21.3531068,24.5628611 C23.9965837,24.3671763 30.2957185,23.4353318 34.1013559,19.0184879 C38.9006967,13.4462045 37.5695995,4.79877635 37.5134472,4.43522654 C37.3540947,3.42883289 36.4823328,2.69269224 35.4606012,2.69269224 C34.9919215,2.67405673 26.2931403,2.71132775 21.4937994,8.29312454 C21.4375584,8.35835358 21.4000635,8.42358263 21.3531956,8.47949153 L21.3531956,2.09637752 C21.3531956,0.950217574 20.4158363,0.0183945706 19.2628667,0.0183945706 C18.109897,0.0183945706 17.1725378,0.950217574 17.1725378,2.09637752 L17.1725378,8.47949153 C17.1256698,8.41426487 17.0788018,8.34903583 17.0319339,8.29312454 C12.2232343,2.72084111 3.49635292,2.67408536 3.06513215,2.69269224 C2.04340048,2.70200999 1.17164821,3.43816019 1.0122861,4.43522654 C0.956045025,4.79863322 -0.37501136,13.445966 4.42437746,19.0184879 C8.23001478,23.435475 14.5385083,24.3672503 17.1726265,24.5628611 L17.1726265,31.8405366 C16.9195333,31.5516767 16.6570814,31.2721203 16.3664813,31.0111946 C10.9485054,26.025982 2.221624,27.0042745 1.84655552,27.0507917 C0.834206559,27.1719297 0.0561854169,28.0012693 0.00931985373,29.0169664 C-0.00942877123,29.3897004 -0.328145797,38.1209788 5.08054334,43.1157333 C8.90513805,46.6381588 14.3979836,47.1877774 17.4162891,47.1877774 C17.9974653,47.1877774 18.4661449,47.1691395 18.8410934,47.1411839 C19.1410522,48.5109842 19.4784938,49.8620822 19.8534663,51.2039245 C18.5973829,50.4304986 17.1725546,49.8061662 15.5978908,49.5173063 C9.04559076,48.2872961 2.80284817,53.2074323 2.54032423,53.4123465 C1.74356166,54.0459823 1.53733399,55.1642081 2.04352046,56.0495139 C2.21224609,56.3383738 6.1867914,63.1873993 12.7575689,64.4173618 C13.4887245,64.5571376 14.2104974,64.6130465 14.9322702,64.6130465 C18.4849823,64.6130465 21.7374956,63.0941526 23.74362,61.910755 C24.4091446,63.3830602 25.1309415,64.8275027 25.8901972,66.2437725 C24.2310411,65.7312723 22.3468439,65.4517158 20.4160691,65.7964918 C14.679417,66.7935581 11.1547811,72.6734037 11.0048017,72.9250737 C10.4892565,73.8010045 10.6861014,74.9192064 11.4734813,75.5715446 C11.6703287,75.739276 15.982222,79.2523671 21.006652,79.2523671 C21.5784454,79.2523671 22.1689803,79.2057759 22.7595392,79.1032735 C26.3777623,78.4696377 29.1148263,75.8976421 30.6803713,74.024788 C31.9458135,75.8045838 33.2955321,77.5190647 34.7110977,79.1779396 C34.4486218,79.1779396 34.1955525,79.1686218 33.9237179,79.1872573 C27.9994115,79.5134025 23.7251186,85.0577279 23.5377043,85.3000945 C22.9190453,86.1107819 22.9846523,87.2383111 23.6876837,87.9744756 C23.8845311,88.1794805 28.4589484,92.8945641 34.1300895,92.8945641 C34.3175614,92.8945641 34.505038,92.8945641 34.6925003,92.8759286 C38.8074551,92.642968 42.1259593,89.9033602 43.831885,88.1700578 C45.2285652,89.325545 46.6814936,90.4344197 48.1719289,91.4873305 C47.6751252,91.6177886 47.1689387,91.7761904 46.6815176,91.9812 C41.2354656,94.3201087 39.135754,100.991939 39.0512856,101.27152 C38.7513268,102.240628 39.2106381,103.284283 40.1198828,103.731445 C40.3167302,103.824627 43.6819536,105.455348 47.5907767,105.455348 C49.081188,105.455348 50.646517,105.22239 52.1556698,104.570114 C55.4832927,103.135094 57.5549282,100.097306 58.6892524,97.8795094 C58.7173741,97.8795094 58.7454959,97.8981449 58.7829907,97.8981449 C58.8579804,97.8981449 58.923597,97.8608715 58.9985867,97.8608715 C60.8077222,98.7181716 62.6542446,99.5102283 64.5478246,100.227738 C64.7915351,100.320921 65.0446283,100.358194 65.2883389,100.358194 C66.0757427,100.358194 66.816257,99.8922824 67.1630814,99.1561179 C67.1537083,99.202709 67.1255889,99.2399824 67.1255889,99.286576 L63.3199516,130.679722 C63.2449619,131.266769 63.4324362,131.863143 63.8354968,132.301121 C64.2291867,132.748402 64.8009802,133 65.4008978,133 L126.602092,133 C127.20201,133 127.764444,132.748402 128.167493,132.301121 C128.561183,131.85384 128.748669,131.266793 128.683038,130.679722 L124.877401,99.286576 C124.868028,99.2399824 124.849279,99.202709 124.839906,99.1561179 C125.18673,99.9015858 125.917886,100.358194 126.714649,100.358194 C126.958359,100.358194 127.211452,100.311603 127.455163,100.227738 C129.348647,99.5195317 131.195289,98.7181716 133.004401,97.8608715 C133.07939,97.8701917 133.145007,97.8981449 133.219997,97.8981449 C133.248118,97.8981449 133.27624,97.8888272 133.313735,97.8795094 C134.447963,100.097283 136.519455,103.144302 139.847318,104.570114 C141.347112,105.213077 142.921775,105.455348 144.412211,105.455348 C148.321034,105.455348 151.69569,103.83395 151.883105,103.731445 C152.801722,103.284164 153.251661,102.240509 152.951702,101.27152 C152.867339,100.991963 150.767618,94.3199417 145.32147,91.9812 C144.824666,91.7668774 144.327862,91.6177934 143.831059,91.4873305 C145.32147,90.4343481 146.765136,89.3254735 148.171102,88.1700578 C149.877124,89.9032648 153.185934,92.6428655 157.310487,92.8759286 C157.497961,92.8852463 157.685436,92.8945641 157.872922,92.8945641 C163.544063,92.8945641 168.118315,88.1793899 168.315328,87.9744756 C169.018359,87.238335 169.083966,86.1014785 168.465307,85.3000945 C168.287208,85.0671363 164.012719,79.5226583 158.079294,79.1872573 C157.816818,79.1686218 157.554366,79.1779396 157.291914,79.1779396 C158.707335,77.5099521 160.066413,75.8046077 161.32264,74.024788 C162.888041,75.8977852 165.625249,78.4696854 169.243472,79.1032735 C169.834007,79.2057759 170.415183,79.2523671 170.996359,79.2523671 C176.020789,79.2523671 180.332517,75.739245 180.52953,75.5715446 C181.31691,74.9192541 181.513779,73.8010522 180.99821,72.9250737 C180.84823,72.6734753 177.323834,66.7936297 171.586942,65.7964918 C169.655952,65.4517158 167.771946,65.7312627 166.112814,66.2437725 C166.872094,64.8273834 167.593867,63.383084 168.259391,61.910755 C170.265372,63.1035037 173.518029,64.6130465 177.070741,64.6130465 C177.783155,64.6130465 178.514287,64.5478198 179.245443,64.4173618 C185.825819,63.1780243 189.800153,56.3383976 189.959491,56.0495139 C190.465677,55.1642796 190.250067,54.0553812 189.462687,53.4123465 C189.190853,53.1887061 182.985497,48.2591949 176.405121,49.4986994 L176.402121,49.4989141 Z M178.145626,10.9779017 C180.545296,8.19164071 184.632175,7.2784723 187.022486,6.98028512 C187.097476,9.37508598 186.816266,13.5217962 184.416684,16.3173606 C182.017014,19.1036216 177.939494,20.01679 175.549182,20.3149772 C175.474192,17.9108729 175.764778,13.7455558 178.145626,10.9779017 Z M178.473709,34.0408908 C181.182696,31.552817 185.335326,31.1055362 187.744355,31.0776259 C187.528762,33.4724268 186.769489,37.5726197 184.079339,40.0511516 C181.370351,42.5392254 177.217721,42.9865061 174.808692,43.005113 C175.024285,40.6196156 175.783558,36.5194226 178.473709,34.0408908 Z M169.952959,20.3056737 C167.553288,19.9981593 163.457051,19.0756635 161.076098,16.3173606 C158.676428,13.5310996 158.395186,9.38462797 158.470296,6.98958856 C160.869966,7.29710303 164.966204,8.21959874 167.347157,10.9872051 C169.737444,13.7641627 170.01871,17.9106343 169.952959,20.3054352 L169.952959,20.3056737 Z M24.6889102,10.9779017 C27.0885806,8.19164071 31.1754593,7.2784723 33.565771,6.98028512 C33.6407607,9.37508598 33.3595505,13.5217962 30.9599689,16.3173606 C28.5602985,19.1036216 24.4827785,20.01679 22.0924668,20.3149772 C22.0174771,17.9108729 22.3080628,13.7455558 24.6889102,10.9779017 L24.6889102,10.9779017 Z M16.4961954,20.3056737 C14.096525,19.9981593 10.0002876,19.0756635 7.61933465,16.3173606 C5.21966423,13.5310996 4.93842286,9.38462797 5.01353255,6.98958856 C7.41320296,7.29710303 11.5094404,8.21959874 13.8903933,10.9872051 C16.280681,13.7641627 16.5619464,17.9106343 16.4961954,20.3054352 L16.4961954,20.3056737 Z M7.9473696,40.060455 C5.24774038,37.5723812 4.48848466,33.4817302 4.27299426,31.0962328 C6.6913821,31.1241884 10.8627292,31.5714716 13.5529997,34.0501942 C16.2526289,36.5382681 17.0118846,40.628919 17.227375,43.0144165 C14.8089872,42.9771431 10.6376401,42.5298742 7.9473696,40.060455 Z M13.5621184,60.3278797 C10.5157368,59.750136 8.10670771,57.2434315 6.79432796,55.5568848 C8.64094634,54.4666409 11.7998005,53.0036869 14.8557808,53.5720794 C17.9021623,54.149823 20.3111915,56.6565276 21.6235712,58.3430742 C19.7675701,59.4333181 16.5897826,60.8962721 13.5621184,60.3278797 Z M24.435505,34.7124083 C26.5352166,31.7026262 30.5001921,30.3793908 32.8530689,29.8388371 C33.1624104,32.2243345 33.3030071,36.398955 31.2126782,39.3901302 C29.1035839,42.3999123 25.1386324,43.7231477 22.7951143,44.2637015 C22.4764141,41.8875313 22.3264347,37.7314939 24.435505,34.7124083 Z M22.0639587,75.0058453 C19.739278,75.4065373 17.3207702,74.3535549 15.7835413,73.4589934 C16.9271283,72.0985203 18.8299229,70.2908142 21.1640823,69.8807472 C23.4981458,69.4800552 25.9072709,70.5330376 27.4444997,71.4275992 C26.3009128,72.7787688 24.3887594,74.5957783 22.0639587,75.0058453 Z M31.5500959,65.9018329 C30.6502195,64.3736356 29.5816222,61.969579 29.9940536,59.6585091 C30.3971262,57.3382312 32.2250032,55.4466748 33.5935592,54.3097468 C34.4934356,55.8379441 35.5620328,58.2420007 35.1496015,60.5530706 C34.7465288,62.8640212 32.9186519,64.7649049 31.5500959,65.9018329 Z M34.5028903,88.7317589 C32.1126026,88.862217 29.684832,87.4737907 28.2224729,86.3648923 C29.5441634,85.106924 31.7375101,83.4481446 34.1935728,83.3178964 C36.6119606,83.2060762 39.011631,84.5758646 40.4646315,85.6754358 C39.142941,86.933404 36.9495943,88.5921835 34.5028903,88.7317351 L34.5028903,88.7317589 Z M41.9080332,75.6394334 C42.0486395,73.1981154 43.7077861,71.0268356 44.9731323,69.7036002 C46.0792363,71.1572746 47.4853472,73.505606 47.3540612,75.9376206 C47.213455,78.3789387 45.5449257,80.5595219 44.2889622,81.8734538 C43.1828581,80.438434 41.7767473,78.08099 41.9080332,75.6394334 Z M50.5413275,100.761107 C48.2822538,101.739542 45.5732898,101.227018 43.8296893,100.695878 C44.6358346,99.0651756 46.1168632,96.7636238 48.3758649,95.7850928 C50.6349386,94.8066571 53.3345439,95.3191813 55.0875031,95.8503194 C54.2719991,97.4903489 52.7909465,99.7918768 50.5413275,100.761104 L50.5413275,100.761107 Z M58.7057261,92.8033259 C58.6776044,92.7846881 58.6307364,92.7660502 58.5651199,92.7380969 C57.3278018,91.4055819 55.7529461,89.2717306 55.6404016,86.9048401 C55.5185439,84.463522 56.9433506,82.1245418 58.0587894,80.6801231 C59.3148729,82.0033346 60.9645503,84.2025486 61.0864536,86.6345632 C61.2083136,89.0479709 59.8210114,91.3590408 58.7055246,92.8033259 L58.7057261,92.8033259 Z M131.540523,34.5828758 C135.205539,34.5828758 138.18641,37.5368373 138.18641,41.170904 L138.18641,45.2897039 C138.18641,53.0890877 134.249511,60.1897594 127.884625,64.3643799 C127.884625,64.3364266 127.893998,64.3084709 127.893998,64.2898331 C127.978361,63.7493748 128.025231,63.2089165 128.081472,62.6684343 C128.109594,62.3982052 128.156462,62.1372795 128.17521,61.8670503 C128.240827,61.0563629 128.268946,60.2363481 128.268946,59.4164288 L128.259573,34.5834006 L131.540523,34.5828758 Z M53.8511017,45.2897039 L53.8511017,41.170904 C53.8511017,37.5368373 56.8320635,34.5828758 60.4970801,34.5828758 L63.7685508,34.5828758 L63.7685508,59.415904 C63.7685508,60.2732041 63.8060456,61.1304803 63.8810353,61.9877088 C63.9185302,62.4349895 63.9841468,62.872943 64.0403879,63.3202238 C64.0872558,63.6649997 64.1060044,64.019103 64.1622455,64.3638789 C57.7786423,60.179955 53.8511017,53.0792833 53.8511017,45.2892029 L53.8511017,45.2897039 Z M73.9297152,76.6470675 C71.6894069,73.7956825 70.0770443,70.6275033 69.0835808,67.2541714 C68.9429745,66.7882599 68.8117461,66.3130211 68.6992496,65.8471096 C68.6430061,65.6048385 68.5961381,65.3532401 68.5398947,65.1016417 C68.4461587,64.6543609 68.3524204,64.2070802 68.2774187,63.7504721 C68.2211776,63.3777381 68.1743097,62.9956769 68.1368124,62.6136394 C68.09932,62.2874942 68.0524496,61.961349 68.0243303,61.6259004 C67.9680868,60.8897597 67.9305919,60.1535952 67.9305919,59.4081273 L67.9399651,30.8751926 L96.052104,30.8751926 C97.2050736,30.8751926 98.1424329,29.9433696 98.1424329,28.7972096 C98.1424329,27.6510497 97.2050736,26.7192267 96.052104,26.7192267 L66.5337582,26.7285468 C66.4306468,26.6912734 66.3462839,26.6353621 66.2337994,26.6167266 C64.7621295,26.3464975 63.4873766,25.610333 62.5217492,24.4828276 C61.5656246,23.373953 61.0406966,21.9482366 61.0406966,20.4666042 C61.0406966,17.0281482 63.8715878,14.2232803 67.3398315,14.2232803 L124.696754,14.2232803 C126.38401,14.2232803 127.958866,14.8755707 129.149342,16.0589921 C130.339795,17.2424135 130.995961,18.8078008 130.995961,20.4666757 C130.995961,23.4857613 128.811877,26.0764115 125.802834,26.6167266 C124.809226,26.7937735 124.087453,27.6510545 124.087453,28.6574481 L124.087453,59.4184374 C124.087453,60.1173166 124.059332,60.8161958 124.003088,61.5150749 C123.843736,63.6023852 123.450036,65.680392 122.812636,67.7025782 C121.819028,70.9082096 120.225551,73.9179917 118.088165,76.6388901 C114.84477,80.729541 110.533042,83.8418995 105.630516,85.6310226 L105.611769,85.6310226 C105.321193,85.733525 105.021235,85.8173896 104.721276,85.910579 C99.0126997,87.7462909 92.7977933,87.7369874 87.0798587,85.8453524 C86.8455165,85.7708056 86.611179,85.7148943 86.3862099,85.6310298 L86.3768368,85.6310298 C81.4743102,83.851234 77.1719411,80.7388516 73.9285466,76.6482007 L73.9297152,76.6470675 Z M104.25435,90.4101949 L104.25435,97.4548074 L87.7659748,97.4548074 L87.7659748,90.4101949 C88.5908615,90.6245176 89.4157483,90.7922562 90.2594724,90.9413498 C90.4094518,90.969303 90.5594312,90.9879409 90.7094106,91.0158966 C91.4218247,91.1370345 92.1342149,91.2208991 92.846629,91.295453 C93.0341009,91.3140909 93.2309602,91.3327264 93.4184225,91.3513619 C95.1431856,91.4911378 96.8866662,91.4911378 98.6115492,91.3513619 C98.7896504,91.3327264 98.9583736,91.3140909 99.1364771,91.3047708 C99.8769914,91.230224 100.608147,91.1370417 101.339303,91.0159109 C101.479909,90.997273 101.611137,90.9786351 101.751758,90.9506818 C102.595386,90.8015883 103.429655,90.6338639 104.254614,90.4101949 L104.25435,90.4101949 Z M67.7721609,128.847715 L71.0717077,101.600563 L120.958456,101.600563 L124.258003,128.847715 L67.7721609,128.847715 Z M133.472737,92.7288984 C133.397748,92.7661694 133.35088,92.7848073 133.322758,92.8034452 C132.216654,91.3590981 130.82926,89.0481952 130.941829,86.6347874 C131.063686,84.1934694 132.713457,82.0035827 133.969493,80.6803473 C135.084956,82.1246944 136.509784,84.4728111 136.387881,86.9050643 C136.266023,89.271931 134.709983,91.3964788 133.472761,92.7290177 L133.472737,92.7288984 Z M148.198795,100.686679 C146.445907,101.217834 143.736847,101.730334 141.487156,100.761226 C139.228083,99.7921177 137.74703,97.4811671 136.940981,95.8504411 C138.684485,95.3192862 141.393569,94.806786 143.652619,95.7852144 C145.911693,96.7543228 147.392745,99.0559699 148.198795,100.686696 L148.198795,100.686679 Z M147.739474,81.8822802 C146.474032,80.5590686 144.805397,78.3784616 144.665016,75.9464469 C144.52441,73.5051289 145.939841,71.1568452 147.045945,69.7031231 C148.311387,71.0170074 149.970663,73.1973997 150.111044,75.6389563 C150.251648,78.0802744 148.845602,80.4285581 147.739498,81.8822802 L147.739474,81.8822802 Z M157.834887,83.3079966 C160.29071,83.44777 162.47489,85.0971196 163.805987,86.3549924 C162.343676,87.4545636 159.915881,88.8430662 157.534928,88.7218591 C155.079106,88.5820833 152.885567,86.9234088 151.563828,85.6748633 C153.016757,84.5752921 155.435217,83.177486 157.834887,83.3079966 Z M160.478364,65.891957 C159.109808,64.7551243 157.282003,62.8542646 156.878858,60.5431947 C156.475714,58.2321248 157.535024,55.8280205 158.434901,54.2998708 C159.803457,55.4367035 161.621903,57.3282598 162.034406,59.6486331 C162.437479,61.968911 161.378241,64.3638073 160.478364,65.891957 Z M170.864378,69.8802701 C173.198441,70.2809621 175.101236,72.0980432 176.244919,73.4585163 C174.707642,74.3530778 172.289302,75.4153637 169.964501,75.0053682 C167.63982,74.6046762 165.727643,72.7875951 164.58396,71.4364255 C166.121237,70.5325367 168.548936,69.4702508 170.864378,69.8802701 Z M169.242728,44.2647988 C166.889923,43.7243405 162.924876,42.4011289 160.825164,39.3912276 C158.725453,36.3814455 158.86605,32.2161284 159.184774,29.8399344 C161.537579,30.3803927 165.502626,31.694277 167.602338,34.7135057 C169.702049,37.7327343 169.55207,41.8886048 169.242728,44.2647988 Z M178.466581,60.3296926 C175.4202,60.898109 172.251915,59.4351311 170.405129,58.3448872 C171.71746,56.658269 174.126538,54.1423564 177.172919,53.5738924 C180.219301,53.005476 183.387586,54.4591266 185.225013,55.5493705 C183.912681,57.245316 181.494246,59.7612047 178.466581,60.3296688 L178.466581,60.3296926 Z" id="Shape"></path>
                        </g>
                    </g>
                </g>
            </g>
        </g>
    </g>
</svg>