<?xml version="1.0" encoding="UTF-8"?>
<svg width="89px" height="89px" viewBox="0 0 89 89" version="1.1" xmlns="http://www.w3.org/2000/svg" xmlns:xlink="http://www.w3.org/1999/xlink">
    <!-- Generator: Sketch 64 (93537) - https://sketch.com -->
    <title>LOGO</title>
    <desc>Created with Sketch.</desc>
    <g id="FINAL-MAQUETTE-V2" stroke="none" stroke-width="1" fill="none" fill-rule="evenodd">
        <g id="DESKTOP-RECHERCHE" transform="translate(-676.000000, -51.000000)">
            <g id="LOGO" transform="translate(676.000000, 51.000000)">
                <g id="Group" transform="translate(10.500000, 2.000000)" fill="#000000">
                    <g id="LOGO" transform="translate(5.000000, 0.000000)">
                        <g id="np_game_1189477_000000" fill-rule="nonzero">
                            <path d="M29.0003152,0 C27.9561778,0 27.1089903,0.851073333 27.1089903,1.9 L27.1089903,10.1333333 L13.869716,10.1333333 C6.23317645,10.1333333 0,16.39491 0,24.0666667 C0,31.7384233 6.23298732,38 13.869716,38 C20.1911543,38 25.4937988,33.7027067 27.1480777,27.8666667 L30.8519223,27.8666667 C32.5068316,33.7027067 37.8088457,38 44.130284,38 C51.7668236,38 58,31.7384233 58,24.0666667 C58,16.39491 51.7670127,10.1333333 44.130284,10.1333333 L30.8910097,10.1333333 L30.8910097,1.9 C30.8910097,0.851073333 30.0438222,0 28.9996848,0 L29.0003152,0 Z M13.869716,13.9333333 L44.1309145,13.9333333 C49.7236253,13.9333333 54.2179806,18.4483033 54.2179806,24.0666667 C54.2179806,29.68503 49.7236253,34.2 44.1309145,34.2 C39.0824639,34.2 34.9453798,30.5064 34.181915,25.6696333 C34.0366171,24.7443967 33.24117,24.0640067 32.3102599,24.06654 L25.6906227,24.06654 C24.7597126,24.0640662 23.9642844,24.7443967 23.8189676,25.6696333 C23.0555658,30.50621 18.9182926,34.2 13.8699682,34.2 C8.27725736,34.2 3.78290199,29.68503 3.78290199,24.0666667 C3.78290199,18.4483033 8.27725736,13.9333333 13.8699682,13.9333333 L13.869716,13.9333333 Z M13.869716,17.1 C12.8255785,17.1 11.9783911,17.9510733 11.9783911,19 L11.9783911,22.1666667 L8.82618289,22.1666667 C7.78204546,22.1666667 6.93485799,23.01774 6.93485799,24.0666667 C6.93485799,25.1155933 7.78204546,25.9666667 8.82618289,25.9666667 L11.9783911,25.9666667 L11.9783911,29.1333333 C11.9783911,30.18226 12.8255785,31.0333333 13.869716,31.0333333 C14.9138534,31.0333333 15.7610409,30.18226 15.7610409,29.1333333 L15.7610409,25.9666667 L18.9132491,25.9666667 C19.9573865,25.9666667 20.804574,25.1155933 20.804574,24.0666667 C20.804574,23.01774 19.9573865,22.1666667 18.9132491,22.1666667 L15.7610409,22.1666667 L15.7610409,19 C15.7610409,17.9510733 14.9138534,17.1 13.869716,17.1 Z M40.9787063,18.3666667 C39.5848629,18.3666667 38.4569397,19.4997633 38.4569397,20.9 C38.4569397,22.3002367 39.5848629,23.4333333 40.9787063,23.4333333 C42.3725497,23.4333333 43.5004728,22.3002367 43.5004728,20.9 C43.5004728,19.4997633 42.3725497,18.3666667 40.9787063,18.3666667 Z M47.2831226,24.7 C45.8892792,24.7 44.7613561,25.8330967 44.7613561,27.2333333 C44.7613561,28.63357 45.8892792,29.7666667 47.2831226,29.7666667 C48.6769661,29.7666667 49.8048892,28.63357 49.8048892,27.2333333 C49.8048892,25.8330967 48.6769661,24.7 47.2831226,24.7 Z" id="Shape"></path>
                        </g>
                        <text id="GAME" font-family="Helvetica-Bold, Helvetica" font-size="20" font-weight="bold">
                            <tspan x="0" y="57">GAME</tspan>
                        </text>
                    </g>
                    <text id="HOARDER" font-family="Helvetica-Light, Helvetica" font-size="14" font-weight="300">
                        <tspan x="0" y="75">HOARDER</tspan>
                    </text>
                </g>
                <rect id="Rectangle" stroke="#000000" stroke-width="3" x="1.5" y="1.5" width="86" height="86"></rect>
            </g>
        </g>
    </g>
</svg>