<?xml version="1.0" encoding="UTF-8"?>
<svg width="51px" height="51px" viewBox="0 0 51 51" version="1.1" xmlns="http://www.w3.org/2000/svg" xmlns:xlink="http://www.w3.org/1999/xlink">
    <!-- Generator: Sketch 64 (93537) - https://sketch.com -->
    <title>Shape</title>
    <desc>Created with Sketch.</desc>
    <g id="FINAL-MAQUETTE-V2" stroke="none" stroke-width="1" fill="none" fill-rule="evenodd">
        <g id="DESKTOP-BIBLIOTHEQUE" transform="translate(-1208.000000, -1851.000000)" fill="#FFFFFF" fill-rule="nonzero">
            <g id="Group-9" transform="translate(0.000000, 1735.000000)">
                <g id="np_camera_23242_FFFFFF" transform="translate(1208.000000, 116.000000)">
                    <path d="M25.500051,29.24136 C27.56397,29.24136 29.24136,27.563919 29.24136,25.500051 C29.24136,23.436183 27.563919,21.758742 25.500051,21.758742 C23.434143,21.758742 21.758742,23.436183 21.758742,25.500051 C21.758742,27.563919 23.434194,29.24136 25.500051,29.24136 Z M33.576411,18.28452 C34.70397,18.28452 35.614422,17.372079 35.614422,16.248498 C35.614422,15.122928 34.70397,14.212476 33.576411,14.212476 C32.45283,14.212476 31.540389,15.122928 31.540389,16.248498 C31.5423811,17.372079 32.45283,18.28452 33.576411,18.28452 Z M32.98272,25.5 C32.98272,29.631816 29.631867,32.98272 25.5,32.98272 C21.368133,32.98272 18.01728,29.631867 18.01728,25.5 C18.01728,24.631419 18.1726719,23.798691 18.4455984,23.019717 L14.8298004,23.019717 L14.8298004,33.162087 C14.8298004,34.913223 16.2621864,36.345609 18.0153114,36.345609 L32.4529014,36.345609 C34.2040374,36.345609 35.6364234,34.913223 35.6364234,33.162087 L35.6364234,19.832217 L30.3773034,19.832217 C31.9690644,21.204831 32.9830974,23.232897 32.9830974,25.499847 L32.98272,25.5 Z M25.5,0 C11.41737,0 0,11.41737 0,25.5 C0,39.58263 11.41737,51 25.5,51 C39.58263,51 51,39.58263 51,25.5 C51,11.41737 39.58263,0 25.5,0 Z M39.11445,35.83923 C39.11445,38.17605 37.203939,40.08855 34.86513,40.08855 L15.60243,40.0905421 C13.26561,40.0905421 11.35311,38.1760531 11.35311,35.8412221 L11.35311,16.5769921 C11.35311,14.2381831 13.26561,12.3276721 15.60243,12.3276721 L34.86666,12.3276721 C37.20348,12.3276721 39.11598,14.2381831 39.11598,16.5769921 L39.11598,35.8412221 L39.11445,35.83923 Z" id="Shape"></path>
                </g>
            </g>
        </g>
    </g>
</svg>