<?xml version="1.0" encoding="UTF-8"?>
<svg width="50px" height="35px" viewBox="0 0 50 35" version="1.1" xmlns="http://www.w3.org/2000/svg" xmlns:xlink="http://www.w3.org/1999/xlink">
    <!-- Generator: Sketch 64 (93537) - https://sketch.com -->
    <title>np_youtube_897674_FFFFFF</title>
    <desc>Created with Sketch.</desc>
    <g id="FINAL-MAQUETTE-V2" stroke="none" stroke-width="1" fill="none" fill-rule="evenodd">
        <g id="DESKTOP-BIBLIOTHEQUE" transform="translate(-1285.000000, -1859.000000)" fill="#FFFFFF" fill-rule="nonzero">
            <g id="Group-9" transform="translate(0.000000, 1735.000000)">
                <g id="np_youtube_897674_FFFFFF" transform="translate(1285.000000, 124.000000)">
                    <path d="M41.5384615,0 L8.46153846,0 C3.78907692,0 0,3.83117778 0,8.55555556 L0,26.4444444 C0,31.1688222 3.78907692,35 8.46153846,35 L41.5384615,35 C46.2109231,35 50,31.1688222 50,26.4444444 L50,8.55555556 C50,3.83117778 46.2109231,0 41.5384615,0 Z M34.7926923,17.843 L19.7926923,25.6207778 C19.6725,25.6815417 19.5312769,25.6785037 19.4170923,25.608625 C19.3029077,25.5387471 19.2307923,25.4141806 19.2307923,25.2774628 L19.2307923,9.72190722 C19.2307923,9.58518944 19.3029077,9.46062056 19.4170923,9.390745 C19.5312769,9.32086633 19.6725,9.31782833 19.7926923,9.37859222 L34.7926923,17.15637 C34.9219,17.2232099 35.0030308,17.3568889 35.0030308,17.5027222 C35.0030308,17.6485556 34.9219,17.78224 34.7926923,17.8490744 L34.7926923,17.843 Z" id="Shape"></path>
                </g>
            </g>
        </g>
    </g>
</svg>