<?xml version="1.0" encoding="UTF-8"?>
<svg width="19px" height="19px" viewBox="0 0 19 19" version="1.1" xmlns="http://www.w3.org/2000/svg" xmlns:xlink="http://www.w3.org/1999/xlink">
    <!-- Generator: Sketch 64 (93537) - https://sketch.com -->
    <title>Path</title>
    <desc>Created with Sketch.</desc>
    <g id="Symbols" stroke="none" stroke-width="1" fill="none" fill-rule="evenodd">
        <g id="rejeuxxx" transform="translate(-68.000000, -321.000000)" fill="#F7B500" fill-rule="nonzero">
            <g id="Group-10">
                <g id="np_start_428628_000000" transform="translate(20.000000, 321.000000)">
                    <path d="M64.1568307,6.35546439 L61.2355263,5.90096189 C60.9098611,5.8508465 60.5235812,5.55102128 60.3781262,5.23476965 L59.0714109,2.40405544 C59.0714109,2.40405544 58.7174657,1.63763686 58.2851143,0.701844367 C57.8527836,-0.233948122 57.1456793,-0.233948122 56.7133279,0.701844367 C56.2809972,1.63849954 55.9278382,2.40405544 55.9278382,2.40405544 L54.6211228,5.23476965 C54.4756617,5.55102128 54.0893879,5.84997496 53.7637228,5.90096189 L50.8424183,6.35546439 C50.8424183,6.35546439 50.0520876,6.47816259 49.0855808,6.62851538 C48.119074,6.77886376 47.9008813,7.49777049 48.5998966,8.22618668 C49.298912,8.95546555 49.8710499,9.55166966 49.8710499,9.55166966 L51.9851219,11.7550346 C52.2210853,12.0004354 52.3681746,12.4860388 52.3124007,12.8325287 L51.8137867,15.9439475 C51.8137867,15.9439475 51.6788328,16.7864151 51.5139811,17.8155103 C51.3491294,18.8446056 51.9212798,19.2887559 52.7851344,18.8031303 C53.6498165,18.3175269 54.3569207,17.9200501 54.3569207,17.9200501 L56.9703928,16.4511402 C57.2621302,16.2878316 57.738898,16.2878316 58.0306354,16.4511402 L60.6441075,17.9200501 C60.6441075,17.9200501 61.3512117,18.3175269 62.2158938,18.8031303 C63.0797691,19.2887337 63.651907,18.8446056 63.4870471,17.8155103 C63.3221871,16.7864151 63.1872415,15.9439475 63.1872415,15.9439475 L62.6886275,12.8325287 C62.6328681,12.4860388 62.7799449,12.0004354 63.0159063,11.7550346 L65.1299783,9.55166966 C65.1299783,9.55166966 65.7021162,8.95546555 66.4011315,8.22618668 C67.0985332,7.49777049 66.8811473,6.77800328 65.9138337,6.62851538 C64.9471614,6.47816701 64.1568307,6.35546439 64.1568307,6.35546439 Z" id="Path"></path>
                </g>
            </g>
        </g>
    </g>
</svg>