<?xml version="1.0" encoding="UTF-8"?>
<svg width="18px" height="18px" viewBox="0 0 18 18" version="1.1" xmlns="http://www.w3.org/2000/svg" xmlns:xlink="http://www.w3.org/1999/xlink">
    <!-- Generator: Sketch 64 (93537) - https://sketch.com -->
    <title>Path</title>
    <desc>Created with Sketch.</desc>
    <g id="Symbols" stroke="none" stroke-width="1" fill="none" fill-rule="evenodd">
        <g id="card-jeux-1" transform="translate(-213.000000, -51.000000)" fill="#FFFFFF" fill-rule="nonzero">
            <g id="Group-8">
                <g id="np_start_428628_000000" transform="translate(121.000000, 51.000000)">
                    <path d="M107.435504,6.02096626 L104.611327,5.59038494 C104.29649,5.54290721 103.923053,5.25886227 103.782434,4.95925546 L102.519164,2.27752621 C102.519164,2.27752621 102.176987,1.55144544 101.759011,0.66490519 C101.341054,-0.221635063 100.65746,-0.221635063 100.239483,0.66490519 C99.8215267,1.55226272 99.4801095,2.27752621 99.4801095,2.27752621 L98.21684,4.95925546 C98.0762151,5.25886227 97.7027842,5.54208155 97.3879468,5.59038494 L94.5637701,6.02096626 C94.5637701,6.02096626 93.7997164,6.13720666 92.8653441,6.27964615 C91.9309718,6.42208145 91.7200336,7.10315099 92.395808,7.79322948 C93.0715824,8.48412526 93.6246979,9.0489502 93.6246979,9.0489502 L95.668481,11.1363486 C95.8965991,11.3688336 96.0387979,11.8288789 95.9848784,12.1571325 L95.5028424,15.1047924 C95.5028424,15.1047924 95.3723754,15.9029196 95.2130048,16.8778519 C95.0536341,17.8527842 95.6067615,18.2735582 96.4418946,17.8134919 C97.2778277,17.3534465 97.9614221,16.9768896 97.9614221,16.9768896 L100.488001,15.5852907 C100.770039,15.4305773 101.230955,15.4305773 101.512993,15.5852907 L104.039572,16.9768896 C104.039572,16.9768896 104.723166,17.3534465 105.559099,17.8134919 C106.394252,18.2735372 106.947368,17.8527842 106.787989,16.8778519 C106.628611,15.9029196 106.498152,15.1047924 106.498152,15.1047924 L106.016116,12.1571325 C105.96221,11.8288789 106.104397,11.3688336 106.332513,11.1363486 L108.376296,9.0489502 C108.376296,9.0489502 108.929412,8.48412526 109.605186,7.79322948 C110.2794,7.10315099 110.069242,6.42126627 109.13409,6.27964615 C108.199558,6.13721085 107.435504,6.02096626 107.435504,6.02096626 Z" id="Path"></path>
                </g>
            </g>
        </g>
    </g>
</svg>