<?xml version="1.0" encoding="UTF-8"?>
<svg width="18px" height="17px" viewBox="0 0 18 17" version="1.1" xmlns="http://www.w3.org/2000/svg" xmlns:xlink="http://www.w3.org/1999/xlink">
    <!-- Generator: Sketch 64 (93537) - https://sketch.com -->
    <title>np_music_2871677_000000</title>
    <desc>Created with Sketch.</desc>
    <g id="Symbols" stroke="none" stroke-width="1" fill="red" fill-rule="evenodd">
        <g id="rejeuxxx" transform="translate(-263.000000, -31.000000)" fill="#FF0000" fill-rule="nonzero">
            <g id="Group-10">
                <g id="Group-9" transform="translate(20.000000, 20.000000)">
                    <g id="Group-3" transform="translate(233.000000, 0.000000)">
                        <g id="np_music_2871677_000000" transform="translate(10.000000, 11.000000)">
                            <path d="M12.4396044,0.0312751431 C11.0766179,0.0321183574 9.76992822,0.602161026 8.80683802,1.61408297 C7.84623574,0.587826815 6.53461133,0.00681631509 5.16440785,0 C3.79418381,-0.00668677131 2.47787143,0.561684149 1.50758479,1.57865761 C0.53816171,2.59563106 -0.00479992421,3.97683166 0,5.41543386 C0.00485092225,6.85489957 0.556625737,8.23197692 1.53328638,9.24227978 L8.80683802,16.8789174 L16.0803897,9.24227978 C17.0441995,8.22951592 17.5847349,6.85576308 17.5839339,5.42471656 C17.5831299,3.99284971 17.0401901,2.62091022 16.0755783,1.60888034 C15.1109666,0.597800317 13.8025292,0.0302821103 12.4395221,0.0311240294 L12.4396044,0.0312751431 Z" id="Path"></path>
                        </g>
                    </g>
                </g>
            </g>
        </g>
    </g>
</svg>