<?xml version="1.0" encoding="UTF-8"?>
<svg width="35px" height="34px" viewBox="0 0 35 34" version="1.1" xmlns="http://www.w3.org/2000/svg" xmlns:xlink="http://www.w3.org/1999/xlink">
    <!-- Generator: Sketch 64 (93537) - https://sketch.com -->
    <title>np_start_428628_000000</title>
    <desc>Created with Sketch.</desc>
    <g id="FINAL-MAQUETTE-V2" stroke="none" stroke-width="1" fill="none" fill-rule="evenodd">
        <g id="DESKTOP-BIBLIOTHEQUE" transform="translate(-640.000000, -370.000000)" fill="#808080" fill-rule="nonzero">
            <g id="HEADER">
                <g id="Group-6" transform="translate(553.000000, 267.000000)">
                    <g id="Group-3" transform="translate(74.000000, 89.000000)">
                        <g id="np_start_428628_000000" transform="translate(13.000000, 14.000000)">
                            <path d="M30.0134798,11.3729363 L24.5220251,10.559616 C23.9098413,10.4699358 23.1837139,9.93340651 22.9102884,9.36748254 L20.4539309,4.30199394 C20.4539309,4.30199394 19.7885864,2.93050806 18.9758542,1.25593202 C18.1631609,-0.418644008 16.8339497,-0.418644008 16.0212175,1.25593202 C15.2085242,2.93205181 14.5446574,4.30199394 14.5446574,4.30199394 L12.0882999,9.36748254 C11.8148628,9.93340651 11.0887471,10.4683763 10.4765632,10.559616 L4.98510856,11.3729363 C4.98510856,11.3729363 3.49944859,11.5925015 1.68261359,11.8615538 C-0.134221421,12.1305983 -0.544379148,13.417063 0.769626676,14.7205446 C2.0836325,16.0255699 3.15913474,17.0924615 3.15913474,17.0924615 L7.1331575,21.0353251 C7.5767205,21.4744634 7.85321822,22.3434379 7.74837464,22.9634724 L6.81108238,28.5312745 C6.81108238,28.5312745 6.55739669,30.0388481 6.24750925,31.8803869 C5.93762181,33.7219258 7.01314738,34.516721 8.63701731,33.6477069 C10.2624428,32.7787324 11.591654,32.0674581 11.591654,32.0674581 L16.5044468,29.4388824 C17.0528534,29.146646 17.9490794,29.146646 18.4974859,29.4388824 L23.4102787,32.0674581 C23.4102787,32.0674581 24.73949,32.7787324 26.3649155,33.6477069 C27.9888243,34.5166814 29.0643265,33.7219258 28.7544235,31.8803869 C28.4445205,30.0388481 28.1908504,28.5312745 28.1908504,28.5312745 L27.2535581,22.9634724 C27.1487418,22.3434379 27.4252162,21.4744634 27.8687753,21.0353251 L31.842798,17.0924615 C31.842798,17.0924615 32.9183003,16.0255699 34.2323061,14.7205446 C35.5432786,13.417063 35.1346375,12.1290585 33.3162859,11.8615538 C31.4991398,11.5925094 30.0134798,11.3729363 30.0134798,11.3729363 Z" id="Path"></path>
                        </g>
                    </g>
                </g>
            </g>
        </g>
    </g>
</svg>